<svg width="18" height="20" viewBox="0 0 18 20" fill="none" xmlns="http://www.w3.org/2000/svg">
<path fill-rule="evenodd" clip-rule="evenodd" d="M4.96834 0.0126953H12.9827C15.9365 0.0126953 17.5813 1.71482 17.5813 4.63138V14.5094C17.5813 17.4738 15.9365 19.1377 12.9827 19.1377H4.96834C2.06134 19.1377 0.368774 17.4738 0.368774 14.5094V4.63138C0.368774 1.71482 2.06134 0.0126953 4.96834 0.0126953ZM5.22662 4.46888V4.45932H8.08486C8.497 4.45932 8.83169 4.79401 8.83169 5.20424C8.83169 5.62595 8.497 5.96063 8.08486 5.96063H5.22662C4.81448 5.96063 4.48075 5.62595 4.48075 5.21476C4.48075 4.80357 4.81448 4.46888 5.22662 4.46888ZM5.22662 10.2829H12.7236C13.1348 10.2829 13.4695 9.94817 13.4695 9.53698C13.4695 9.12579 13.1348 8.79015 12.7236 8.79015H5.22662C4.81448 8.79015 4.48075 9.12579 4.48075 9.53698C4.48075 9.94817 4.81448 10.2829 5.22662 10.2829ZM5.22654 14.6529H12.7235C13.1051 14.6146 13.3929 14.2886 13.3929 13.907C13.3929 13.515 13.1051 13.1898 12.7235 13.1516H5.22654C4.93967 13.1229 4.66235 13.2568 4.50935 13.5054C4.35635 13.7445 4.35635 14.06 4.50935 14.3086C4.66235 14.5477 4.93967 14.6911 5.22654 14.6529Z" fill="#7649B3"/>
</svg>
