<svg width="20" height="20" viewBox="0 0 20 20" fill="none" xmlns="http://www.w3.org/2000/svg">
<path fill-rule="evenodd" clip-rule="evenodd" d="M5.50965 0.212891H14.4401C17.6923 0.212891 19.5283 2.0575 19.5378 5.3097V14.2411C19.5378 17.4923 17.6923 19.3379 14.4401 19.3379H5.50965C2.25745 19.3379 0.412842 17.4923 0.412842 14.2411V5.3097C0.412842 2.0575 2.25745 0.212891 5.50965 0.212891ZM10.0222 15.379C10.4344 15.379 10.7777 15.073 10.8159 14.6618V4.91766C10.8542 4.62122 10.7117 4.32383 10.4535 4.16222C10.1848 3.99966 9.85967 3.99966 9.60244 4.16222C9.3433 4.32383 9.20082 4.62122 9.22855 4.91766V14.6618C9.27732 15.073 9.62061 15.379 10.0222 15.379ZM14.4219 15.379C14.8236 15.379 15.1669 15.073 15.2156 14.6618V11.5253C15.2434 11.2184 15.1009 10.9325 14.8417 10.7699C14.5845 10.6073 14.2594 10.6073 13.9916 10.7699C13.7325 10.9325 13.59 11.2184 13.6283 11.5253V14.6618C13.6665 15.073 14.0098 15.379 14.4219 15.379ZM6.35977 14.6618C6.32152 15.073 5.97822 15.379 5.56608 15.379C5.15489 15.379 4.81064 15.073 4.77335 14.6618V8.05411C4.74466 7.75672 4.88714 7.46124 5.14629 7.29867C5.40352 7.13611 5.7296 7.13611 5.98779 7.29867C6.24502 7.46124 6.38941 7.75672 6.35977 8.05411V14.6618Z" fill="#7649B3"/>
</svg>
