<svg width="19" height="19" viewBox="0 0 19 19" fill="none" xmlns="http://www.w3.org/2000/svg">
<path d="M13.7996 0.118774C14.5313 0.118734 15.2354 0.39831 15.7678 0.900302C16.3002 1.40229 16.6207 2.08875 16.6636 2.81922L16.6684 2.98752V12.55H17.3855C18.0042 12.55 18.5139 13.0205 18.5751 13.6229L18.5809 13.7453V15.4188C18.5809 16.1505 18.3013 16.8546 17.7993 17.387C17.2973 17.9194 16.6109 18.2398 15.8804 18.2827L15.7121 18.2875H6.14961C5.41788 18.2876 4.71379 18.008 4.1814 17.506C3.64901 17.004 3.32857 16.3175 3.28564 15.5871L3.28086 15.4188V5.85627H1.60742C1.3115 5.85641 1.02605 5.74677 0.806308 5.54858C0.586564 5.35038 0.448149 5.07773 0.417847 4.78336L0.412109 4.66096V2.98752C0.412069 2.25579 0.691645 1.5517 1.19364 1.01931C1.69563 0.486924 2.38209 0.166484 3.11256 0.123556L3.28086 0.118774H13.7996ZM16.6684 14.4625H8.06211V15.4188C8.06211 15.7535 8.00473 16.0757 7.89955 16.375H15.7121C15.9657 16.375 16.2089 16.2743 16.3883 16.0949C16.5676 15.9156 16.6684 15.6724 16.6684 15.4188V14.4625ZM9.97461 8.72502H8.06211C7.81838 8.7253 7.58395 8.81862 7.40673 8.98594C7.2295 9.15325 7.12285 9.38192 7.10856 9.62523C7.09428 9.86854 7.17344 10.1081 7.32987 10.295C7.48631 10.4819 7.70821 10.602 7.95023 10.6308L8.06211 10.6375H9.97461C10.2183 10.6373 10.4528 10.5439 10.63 10.3766C10.8072 10.2093 10.9139 9.98063 10.9282 9.73732C10.9424 9.49401 10.8633 9.25442 10.7068 9.06752C10.5504 8.88062 10.3285 8.7605 10.0865 8.73172L9.97461 8.72502ZM11.8871 4.90002H8.06211C7.8085 4.90002 7.56527 5.00077 7.38594 5.1801C7.20661 5.35944 7.10586 5.60266 7.10586 5.85627C7.10586 6.10989 7.20661 6.35311 7.38594 6.53244C7.56527 6.71178 7.8085 6.81252 8.06211 6.81252H11.8871C12.1407 6.81252 12.3839 6.71178 12.5633 6.53244C12.7426 6.35311 12.8434 6.10989 12.8434 5.85627C12.8434 5.60266 12.7426 5.35944 12.5633 5.1801C12.3839 5.00077 12.1407 4.90002 11.8871 4.90002ZM3.28086 2.03127C3.02725 2.03127 2.78402 2.13202 2.60469 2.31135C2.42536 2.49069 2.32461 2.73391 2.32461 2.98752V3.94377H3.28086V2.03127Z" fill="#7649B3"/>
</svg>
