<svg width="20" height="23" viewBox="0 0 20 23" fill="none" xmlns="http://www.w3.org/2000/svg">
<path fill-rule="evenodd" clip-rule="evenodd" d="M6.55827 22.5291C7.38442 22.5291 8.06035 21.8541 8.06035 21.0291H5.05619C5.05619 21.8541 5.73213 22.5291 6.55827 22.5291ZM11.44 18.0291V13.9041C11.44 11.6016 9.84032 9.67405 7.68483 9.16405V8.65405C7.68483 8.03155 7.18164 7.52905 6.55827 7.52905C5.93491 7.52905 5.43171 8.03155 5.43171 8.65405V9.16405C3.27623 9.67405 1.67652 11.6016 1.67652 13.9041V18.0291L0.174438 19.5291V20.2791H12.9421V19.5291L11.44 18.0291Z" fill="#FB8308"/>
<ellipse cx="13.3558" cy="7.32581" rx="5.96141" ry="5.95312" fill="white" stroke="#3E2048" stroke-width="1.05"/>
<path d="M12.1768 8.51581C12.6568 8.11581 13.0393 7.78331 13.3243 7.51831C13.6093 7.24831 13.8468 6.96831 14.0368 6.67831C14.2268 6.38831 14.3218 6.10331 14.3218 5.82331C14.3218 5.56831 14.2618 5.36831 14.1418 5.22331C14.0218 5.07831 13.8368 5.00581 13.5868 5.00581C13.3368 5.00581 13.1443 5.09081 13.0093 5.26081C12.8743 5.42581 12.8043 5.65331 12.7993 5.94331H11.7793C11.7993 5.34331 11.9768 4.88831 12.3118 4.57831C12.6518 4.26831 13.0818 4.11331 13.6018 4.11331C14.1718 4.11331 14.6093 4.26581 14.9143 4.57081C15.2193 4.87081 15.3718 5.26831 15.3718 5.76331C15.3718 6.15331 15.2668 6.52581 15.0568 6.88081C14.8468 7.23581 14.6068 7.54581 14.3368 7.81081C14.0668 8.07081 13.7143 8.38581 13.2793 8.75581H15.4918V9.62581H11.7868V8.84581L12.1768 8.51581Z" fill="#4A0080"/>
</svg>
