<svg width="18" height="16" viewBox="0 0 18 16" fill="none" xmlns="http://www.w3.org/2000/svg">
<path d="M6.1754 15.5C6.86672 15.5 7.42715 14.9404 7.42715 14.25C7.42715 13.5596 6.86672 13 6.1754 13C5.48407 13 4.92365 13.5596 4.92365 14.25C4.92365 14.9404 5.48407 15.5 6.1754 15.5Z" fill="white"/>
<path d="M14.937 15.5C15.6284 15.5 16.1888 14.9404 16.1888 14.25C16.1888 13.5596 15.6284 13 14.937 13C14.2457 13 13.6852 13.5596 13.6852 14.25C13.6852 14.9404 14.2457 15.5 14.937 15.5Z" fill="white"/>
<path d="M17.1591 2.71801C17.0712 2.61061 16.9604 2.5241 16.8349 2.46478C16.7093 2.40545 16.572 2.3748 16.4331 2.37504H4.52771L4.28791 1.01642C4.26235 0.871698 4.18653 0.740604 4.07379 0.646162C3.96104 0.55172 3.81858 0.499969 3.67142 0.5H1.1679C1.00191 0.5 0.842714 0.565849 0.725339 0.683062C0.607963 0.800275 0.542023 0.959249 0.542023 1.12501C0.542023 1.29078 0.607963 1.44975 0.725339 1.56696C0.842714 1.68418 1.00191 1.75002 1.1679 1.75002H3.14647L4.93257 11.8588C4.95814 12.0035 5.03395 12.1346 5.1467 12.2291C5.25944 12.3235 5.40191 12.3753 5.54906 12.3752H15.5631C15.7291 12.3752 15.8883 12.3094 16.0057 12.1922C16.1231 12.075 16.189 11.916 16.189 11.7502C16.189 11.5845 16.1231 11.4255 16.0057 11.3083C15.8883 11.1911 15.7291 11.1252 15.5631 11.1252H6.07402L5.8534 9.87519H15.3065C15.5236 9.87491 15.7339 9.79976 15.9018 9.66244C16.0698 9.52513 16.185 9.33409 16.2281 9.12166L17.3547 3.49654C17.3819 3.36041 17.3784 3.21995 17.3446 3.08532C17.3108 2.95068 17.2474 2.82523 17.1591 2.71801V2.71801Z" fill="#FB8308"/>
</svg>
