<svg width="18" height="17" viewBox="0 0 18 17" fill="none" xmlns="http://www.w3.org/2000/svg">
<ellipse cx="9.72823" cy="8.375" rx="4.97566" ry="7.125" fill="white"/>
<path fill-rule="evenodd" clip-rule="evenodd" d="M9.08539 0.125C4.52507 0.125 0.823944 3.821 0.823944 8.375C0.823944 12.929 4.52507 16.625 9.08539 16.625C13.6457 16.625 17.3468 12.929 17.3468 8.375C17.3468 3.821 13.6457 0.125 9.08539 0.125ZM9.91153 14.15H8.25924V12.5H9.91153V14.15ZM11.6217 7.75625L10.8781 8.51525C10.2833 9.1175 9.91153 9.6125 9.91153 10.85H8.25924V10.4375C8.25924 9.53 8.63101 8.705 9.22583 8.10275L10.2503 7.06325C10.5559 6.76625 10.7377 6.35375 10.7377 5.9C10.7377 4.9925 9.99415 4.25 9.08539 4.25C8.17663 4.25 7.4331 4.9925 7.4331 5.9H5.78081C5.78081 4.07675 7.25961 2.6 9.08539 2.6C10.9112 2.6 12.39 4.07675 12.39 5.9C12.39 6.626 12.0926 7.286 11.6217 7.75625Z" fill="#FB8308"/>
</svg>
