<svg width="17" height="18" viewBox="0 0 17 18" fill="none" xmlns="http://www.w3.org/2000/svg">
<ellipse cx="8.664" cy="8.8125" rx="3.94299" ry="3.9375" fill="white"/>
<path d="M15.8675 10.9552C15.7071 10.7077 15.4792 10.4602 15.1837 10.3035C14.9473 10.188 14.7953 9.99825 14.6602 9.7755C14.2296 9.066 14.4829 8.13375 15.2005 7.713C16.0448 7.24275 16.315 6.195 15.8253 5.37825L15.2596 4.40475C14.7784 3.588 13.723 3.29925 12.8872 3.77775C12.1442 4.17375 11.1902 3.90975 10.7596 3.2085C10.6245 2.9775 10.5485 2.73 10.5654 2.4825C10.5907 2.16075 10.4894 1.8555 10.3374 1.608C10.0251 1.0965 9.45939 0.75 8.83462 0.75H7.64417C7.02784 0.7665 6.46217 1.0965 6.14978 1.608C5.98937 1.8555 5.89649 2.16075 5.91338 2.4825C5.93027 2.73 5.85428 2.9775 5.71919 3.2085C5.28861 3.90975 4.33456 4.17375 3.60003 3.77775C2.75574 3.29925 1.70883 3.588 1.21914 4.40475L0.653466 5.37825C0.172222 6.195 0.442394 7.24275 1.27824 7.713C1.99588 8.13375 2.24917 9.066 1.82703 9.7755C1.6835 9.99825 1.53153 10.188 1.29513 10.3035C1.00807 10.4602 0.754781 10.7077 0.619695 10.9552C0.307308 11.4667 0.324194 12.1102 0.636581 12.6465L1.21914 13.6365C1.53153 14.1645 2.11408 14.4945 2.72197 14.4945C3.00903 14.4945 3.34674 14.412 3.61692 14.247C3.82799 14.1068 4.08127 14.0572 4.35989 14.0572C5.19573 14.0572 5.89649 14.742 5.91338 15.5588C5.91338 16.5075 6.69012 17.25 7.6695 17.25H8.81773C9.78866 17.25 10.5654 16.5075 10.5654 15.5588C10.5907 14.742 11.2915 14.0572 12.1273 14.0572C12.3975 14.0572 12.6508 14.1068 12.8703 14.247C13.1405 14.412 13.4698 14.4945 13.7653 14.4945C14.3647 14.4945 14.9473 14.1645 15.2596 13.6365L15.8506 12.6465C16.1546 12.0937 16.1799 11.4667 15.8675 10.9552" fill="#FB8308"/>
<path d="M8.25824 12C6.55201 12 5.17181 10.6726 5.17181 9.00531C5.17181 7.33805 6.55201 6 8.25824 6C9.96448 6 11.3121 7.33805 11.3121 9.00531C11.3121 10.6726 9.96448 12 8.25824 12" fill="white"/>
<path d="M8.25824 12C6.55201 12 5.17181 10.6726 5.17181 9.00531C5.17181 7.33805 6.55201 6 8.25824 6C9.96448 6 11.3121 7.33805 11.3121 9.00531C11.3121 10.6726 9.96448 12 8.25824 12" stroke="#3E2048" stroke-width="1.125"/>
</svg>
