<svg width="27" height="16" viewBox="0 0 27 16" fill="none" xmlns="http://www.w3.org/2000/svg">
<path fill-rule="evenodd" clip-rule="evenodd" d="M13.4055 5.63047C12.766 5.70707 12.1176 5.65612 11.4979 5.48054C11.4292 5.46115 11.3691 5.42052 11.325 5.36441C11.2809 5.30831 11.2558 5.23963 11.2533 5.16837C11.2508 5.0971 11.271 5.02691 11.311 4.96785C11.3511 4.90878 11.4088 4.86391 11.476 4.83974C12.3461 4.52751 13.172 4.10402 13.9331 3.57982C14.1491 3.431 14.3975 3.33559 14.6578 3.30151C14.918 3.26743 15.1826 3.29562 15.4298 3.38377L17.8293 4.23969L19.6609 3.57067L22.7216 8.46338L21.1291 9.92285C21.0524 9.79406 20.9535 9.67977 20.8371 9.58528L15.2235 5.03427C14.663 5.3512 14.0451 5.55387 13.4055 5.63047ZM11.9059 12.0263C11.969 12.2115 11.9899 12.4084 11.9672 12.6027C12.2161 12.5383 12.4784 12.5479 12.7218 12.6305C12.9652 12.7131 13.1791 12.8651 13.3372 13.0675C13.4953 13.27 13.5906 13.5142 13.6115 13.7701C13.6323 14.0259 13.5778 14.2823 13.4546 14.5076L14.6454 15.3621C14.8037 15.4757 15.0006 15.5218 15.1929 15.4904C15.3851 15.4589 15.5571 15.3525 15.6708 15.1945C15.7845 15.0365 15.8306 14.8398 15.7992 14.6478C15.7677 14.4558 15.6611 14.2841 15.5028 14.1706L13.1811 12.5046C13.1287 12.4665 13.0936 12.4093 13.0834 12.3455C13.0732 12.2816 13.0886 12.2163 13.1264 12.1638C13.1642 12.1113 13.2212 12.0759 13.2851 12.0652C13.3489 12.0545 13.4144 12.0695 13.4672 12.1069L16.5012 14.2837C16.6796 14.408 16.8999 14.4572 17.1143 14.4206C17.3287 14.384 17.5201 14.2645 17.647 14.0881C17.7739 13.9117 17.8262 13.6924 17.7925 13.4778C17.7587 13.2632 17.6418 13.0704 17.4668 12.9413L14.2411 10.6266C14.19 10.5881 14.156 10.5312 14.1463 10.468C14.1367 10.4047 14.1522 10.3402 14.1896 10.2883C14.2269 10.2363 14.2831 10.201 14.3462 10.1899C14.4093 10.1788 14.4742 10.1928 14.5271 10.2289L18.1824 12.8516C18.3607 12.9795 18.5826 13.0315 18.7992 12.9961C19.0158 12.9606 19.2095 12.8407 19.3376 12.6627C19.4657 12.4847 19.5178 12.2631 19.4823 12.0467C19.4468 11.8304 19.3268 11.637 19.1485 11.509L15.2761 8.73073C15.2238 8.69263 15.1886 8.63542 15.1784 8.57158C15.1682 8.50774 15.1836 8.44249 15.2214 8.38998C15.2592 8.33748 15.3162 8.30202 15.3801 8.29134C15.4439 8.28067 15.5094 8.29563 15.5623 8.33299L19.5741 11.2113C19.74 11.3299 19.9455 11.3793 20.1473 11.3491C20.349 11.319 20.5311 11.2116 20.655 11.0497C20.7788 10.8878 20.8347 10.6842 20.8109 10.4819C20.787 10.2795 20.6852 10.0944 20.527 9.96573L15.1643 5.61806C13.9813 6.19149 12.6285 6.3103 11.3634 5.95192C11.1948 5.90417 11.0457 5.80418 10.9376 5.66639C10.8296 5.52859 10.7681 5.36015 10.762 5.18522C10.756 5.01029 10.8058 4.83792 10.9041 4.69304C11.0024 4.54815 11.1443 4.43822 11.3092 4.379C11.9885 4.13523 12.6399 3.82025 13.2527 3.43931C12.4774 3.33173 11.688 3.39664 10.9408 3.62944C9.88804 3.72406 8.83074 3.75892 7.77401 3.73386L4.56317 9.01055L5.33319 9.57508L6.17706 8.87941C6.36891 8.72129 6.60164 8.62061 6.84837 8.58899C7.0951 8.55737 7.34575 8.59615 7.57136 8.70078C7.79697 8.80542 7.98832 8.97165 8.12331 9.1803C8.2583 9.38895 8.33141 9.63149 8.33419 9.87989L8.42228 9.80747C8.6361 9.63117 8.90016 9.52671 9.17688 9.50893C9.45359 9.49114 9.72888 9.56093 9.96357 9.70842C10.1983 9.8559 10.3804 10.0735 10.4841 10.3304C10.5877 10.5872 10.6077 10.8701 10.541 11.1389C10.7361 11.1216 10.9326 11.1479 11.1163 11.2159C11.2999 11.2839 11.4661 11.3919 11.6027 11.5321C11.7393 11.6723 11.8429 11.8411 11.9059 12.0263ZM6.56711 11.3372L7.54449 10.5318C7.71236 10.3918 7.81793 10.1911 7.83813 9.97362C7.85834 9.75617 7.79153 9.53959 7.65232 9.37117C7.5131 9.20274 7.31279 9.09617 7.09514 9.07475C6.8775 9.05334 6.66021 9.11884 6.49076 9.2569L5.51359 10.0624C5.34761 10.2029 5.24373 10.403 5.22443 10.6195C5.20512 10.8359 5.27196 11.0513 5.41046 11.2189C5.54896 11.3865 5.74799 11.4929 5.96446 11.515C6.18094 11.5372 6.39744 11.4733 6.56711 11.3372ZM10.0818 10.902C10.0616 11.1194 9.95605 11.3201 9.78818 11.4601L8.0218 12.9161C7.85235 13.0541 7.63507 13.1196 7.41742 13.0982C7.19978 13.0768 6.99947 12.9702 6.86026 12.8018C6.72104 12.6334 6.65424 12.4167 6.67444 12.1993C6.69464 11.9818 6.80021 11.7812 6.96808 11.6412L8.73445 10.1853C8.90391 10.0472 9.12119 9.98171 9.33883 10.0031C9.55648 10.0245 9.75679 10.1311 9.896 10.2995C10.0352 10.468 10.102 10.6845 10.0818 10.902ZM9.8038 14.2265L11.1859 13.0872C11.3538 12.9473 11.4593 12.7466 11.4796 12.5292C11.4998 12.3117 11.433 12.0951 11.2937 11.9267C11.1545 11.7582 10.9542 11.6517 10.7366 11.6302C10.519 11.6088 10.3017 11.6743 10.1322 11.8124L8.7501 12.9516C8.58211 13.0916 8.47643 13.2922 8.45617 13.5098C8.4359 13.7273 8.5027 13.944 8.64196 14.1125C8.78122 14.281 8.98161 14.3875 9.19932 14.4089C9.41704 14.4303 9.63437 14.3647 9.8038 14.2265ZM10.8558 13.9946L11.7717 13.2397C11.941 13.1002 12.1588 13.0335 12.3773 13.0544C12.5958 13.0753 12.797 13.182 12.9368 13.351C13.0765 13.5201 13.1432 13.7376 13.1223 13.9558C13.1015 14.174 12.9946 14.375 12.8254 14.5145L11.9095 15.2695C11.7401 15.4081 11.5226 15.4741 11.3046 15.4529C11.0866 15.4317 10.8859 15.325 10.7465 15.1564C10.6071 14.9877 10.5403 14.7707 10.5608 14.5529C10.5812 14.3352 10.6873 14.1344 10.8558 13.9946Z" fill="#FB8308"/>
<path d="M8.07999 2.28996L3.47775 9.85299L0.528259 8.06303L5.13027 0.5L8.07999 2.28996Z" fill="white"/>
<path d="M22.4613 0.614197L26.8232 7.58702L23.894 9.41429L19.5321 2.44147L22.4613 0.614197Z" fill="white"/>
</svg>
