<svg width="25" height="23" viewBox="0 0 25 23" fill="none" xmlns="http://www.w3.org/2000/svg">
<rect x="2.83545" y="9.40616" width="11.3595" height="9.28125" fill="white"/>
<path d="M15.879 9.54987V17.7725C15.879 18.8874 14.9718 19.7933 13.8553 19.7933H11.8085V22.1161C11.8085 22.4878 11.3665 22.6736 11.1106 22.3948L8.50552 19.8166C8.50552 19.8166 8.50552 19.7933 8.48226 19.7933H2.94636C1.82987 19.7933 0.922729 18.8874 0.922729 17.7725V9.54987C0.922729 8.43494 1.82987 7.52905 2.94636 7.52905H13.8786C14.9718 7.52905 15.879 8.43494 15.879 9.54987ZM11.948 17.4938C11.948 15.473 10.8315 13.7773 9.29636 13.3128C9.87786 12.9876 10.2733 12.4069 10.2733 11.6868C10.2733 10.6648 9.43592 9.82861 8.41248 9.82861C7.38903 9.82861 6.55167 10.6648 6.55167 11.6868C6.55167 12.3837 6.94709 12.9876 7.5286 13.3128C5.99343 13.8006 4.87695 15.473 4.87695 17.4938H11.948Z" fill="#FB8308"/>
<ellipse cx="18.0396" cy="7.32581" rx="5.96136" ry="5.95312" fill="white" stroke="#3E2048" stroke-width="1.05"/>
<path d="M16.9489 5.20081V4.23331H18.7564V9.70081H17.6764V5.20081H16.9489Z" fill="#4A0080"/>
</svg>
