<svg width="214" height="24" viewBox="0 0 214 24" fill="none" xmlns="http://www.w3.org/2000/svg">
<g clip-path="url(#clip0_141_2721)">
<path d="M14 13.5H16.5L17.5 9.5H14V7.5C14 6.47 14 5.5 16 5.5H17.5V2.14C17.174 2.097 15.943 2 14.643 2C11.928 2 10 3.657 10 6.7V9.5H7V13.5H10V22H14V13.5Z" fill="#7649B3"/>
</g>
<line x1="44.5" y1="2" x2="44.5" y2="22" stroke="#7649B3"/>
<path d="M84.5195 2H67.4766C66.6602 2 66 2.64453 66 3.44141V20.5547C66 21.3516 66.6602 22 67.4766 22H84.5195C85.3359 22 86 21.3516 86 20.5586V3.44141C86 2.64453 85.3359 2 84.5195 2ZM71.9336 19.043H68.9648V9.49609H71.9336V19.043ZM70.4492 8.19531C69.4961 8.19531 68.7266 7.42578 68.7266 6.47656C68.7266 5.52734 69.4961 4.75781 70.4492 4.75781C71.3984 4.75781 72.168 5.52734 72.168 6.47656C72.168 7.42188 71.3984 8.19531 70.4492 8.19531ZM83.043 19.043H80.0781V14.4023C80.0781 13.2969 80.0586 11.8711 78.5352 11.8711C76.9922 11.8711 76.7578 13.0781 76.7578 14.3242V19.043H73.7969V9.49609H76.6406V10.8008H76.6797C77.0742 10.0508 78.043 9.25781 79.4844 9.25781C82.4883 9.25781 83.043 11.2344 83.043 13.8047V19.043Z" fill="#7649B3"/>
<line x1="108.5" y1="2" x2="108.5" y2="22" stroke="#7649B3"/>
<g clip-path="url(#clip1_141_2721)">
<path d="M150.162 5.65599C149.399 5.99368 148.589 6.21546 147.76 6.31399C148.634 5.79142 149.288 4.969 149.6 3.99999C148.78 4.48799 147.881 4.82999 146.944 5.01499C146.315 4.34157 145.48 3.89495 144.571 3.74457C143.662 3.59419 142.728 3.74848 141.915 4.18344C141.103 4.6184 140.456 5.30967 140.077 6.14978C139.698 6.98989 139.607 7.93177 139.818 8.82899C138.155 8.74564 136.528 8.31351 135.043 7.56065C133.558 6.80779 132.248 5.75104 131.198 4.45899C130.826 5.09744 130.631 5.82321 130.632 6.56199C130.632 8.01199 131.37 9.29299 132.492 10.043C131.828 10.0221 131.179 9.84277 130.598 9.51999V9.57199C130.598 10.5377 130.932 11.4736 131.544 12.221C132.155 12.9685 133.007 13.4815 133.953 13.673C133.337 13.84 132.69 13.8646 132.063 13.745C132.33 14.5762 132.85 15.3032 133.551 15.8241C134.251 16.345 135.097 16.6338 135.97 16.65C135.103 17.3313 134.109 17.835 133.047 18.1322C131.985 18.4293 130.874 18.5142 129.779 18.382C131.691 19.6114 133.916 20.2641 136.189 20.262C143.882 20.262 148.089 13.889 148.089 8.36199C148.089 8.18199 148.084 7.99999 148.076 7.82199C148.895 7.23015 149.602 6.49701 150.163 5.65699L150.162 5.65599Z" fill="#7649B3"/>
</g>
<line x1="172.5" y1="2" x2="172.5" y2="22" stroke="#7649B3"/>
<path d="M194 22L195.406 16.8642C194.538 15.3608 194.082 13.6567 194.083 11.9092C194.086 6.44583 198.532 2 203.994 2C206.645 2.00083 209.133 3.03333 211.005 4.90667C212.876 6.78 213.906 9.27 213.905 11.9183C213.902 17.3825 209.457 21.8283 203.994 21.8283C202.336 21.8275 200.702 21.4117 199.254 20.6217L194 22ZM199.497 18.8275C200.894 19.6567 202.227 20.1533 203.991 20.1542C208.531 20.1542 212.229 16.4592 212.232 11.9167C212.233 7.365 208.552 3.675 203.997 3.67333C199.454 3.67333 195.758 7.36833 195.757 11.91C195.756 13.7642 196.299 15.1525 197.212 16.605L196.379 19.645L199.497 18.8275ZM208.987 14.2742C208.925 14.1708 208.76 14.1092 208.512 13.985C208.264 13.8608 207.047 13.2617 206.819 13.1792C206.592 13.0967 206.427 13.055 206.262 13.3033C206.097 13.5508 205.622 14.1092 205.477 14.2742C205.333 14.4392 205.188 14.46 204.941 14.3358C204.693 14.2117 203.895 13.9508 202.949 13.1067C202.213 12.45 201.716 11.6392 201.572 11.3908C201.427 11.1433 201.557 11.0092 201.68 10.8858C201.792 10.775 201.927 10.5967 202.052 10.4517C202.177 10.3083 202.218 10.205 202.302 10.0392C202.384 9.87417 202.343 9.72917 202.281 9.605C202.218 9.48167 201.723 8.2625 201.517 7.76667C201.316 7.28417 201.112 7.34917 200.96 7.34167L200.485 7.33333C200.32 7.33333 200.052 7.395 199.825 7.64333C199.598 7.89167 198.958 8.49 198.958 9.70917C198.958 10.9283 199.846 12.1058 199.969 12.2708C200.093 12.4358 201.715 14.9375 204.199 16.01C204.79 16.265 205.252 16.4175 205.611 16.5317C206.204 16.72 206.744 16.6933 207.171 16.63C207.647 16.5592 208.636 16.0308 208.842 15.4525C209.049 14.8733 209.049 14.3775 208.987 14.2742Z" fill="#7649B3"/>
<defs>
<clipPath id="clip0_141_2721">
<rect width="24" height="24" fill="white"/>
</clipPath>
<clipPath id="clip1_141_2721">
<rect width="24" height="24" fill="white" transform="translate(128)"/>
</clipPath>
</defs>
</svg>
